Coordinates
version=1
nRows=36
nColumns=34
inDegrees=no

Units are S.I. units (second, meters, Newtons, ...)
If the header above contains a line with 'inDegrees', this indicates whether rotational values are in degrees (yes) or radians (no).

endheader
time	pelvis_tilt	pelvis_list	pelvis_rotation	pelvis_tx	pelvis_ty	pelvis_tz	hip_flexion_r	hip_adduction_r	hip_rotation_r	knee_angle_r	ankle_angle_r	subtalar_angle_r	mtp_angle_r	hip_flexion_l	hip_adduction_l	hip_rotation_l	knee_angle_l	ankle_angle_l	subtalar_angle_l	mtp_angle_l	lumbar_extension	lumbar_bending	lumbar_rotation	arm_flex_r	arm_add_r	arm_rot_r	elbow_flex_r	pro_sup_r	arm_flex_l	arm_add_l	arm_rot_l	elbow_flex_l	pro_sup_l
0	-0.0287162	-0.0516178	0.0475353	-0.108694	0.988204	-0.197157	0.391537	0.0396589	0.00906675	3.82722e-05	-0.0278619	0.0264559	-0.000502583	-0.125202	-0.0438887	0.000725865	0.232681	0.447978	0.130475	-0.00052777	-0.105617	0.0501052	-0.0909832	-0.239244	-0.107915	-0.275152	0.724334	1.74889	0.257198	-0.4111	0.119951	1.20163	1.68481
0.01	-0.0260003	-0.0608463	0.0504254	-0.094937	0.996225	-0.196406	0.385139	0.0492266	0.00287395	0.0133742	-0.0507153	0.00272866	-0.000501724	-0.130718	-0.0566479	-0.00306062	0.255533	0.457274	0.132909	-0.000526865	-0.106118	0.0650785	-0.092723	-0.239366	-0.109529	-0.277266	0.723789	1.74794	0.244956	-0.406974	0.11883	1.21436	1.68777
0.02	-0.0239111	-0.0704398	0.0525403	-0.08126	1.00341	-0.195555	0.379754	0.0594272	-0.00265251	0.0277356	-0.0701405	-0.0185523	-0.000500865	-0.133506	-0.0701352	-0.00758037	0.281604	0.461046	0.133176	-0.000525959	-0.10589	0.080205	-0.0938452	-0.239442	-0.111328	-0.278865	0.722742	1.74697	0.231865	-0.402247	0.117901	1.22536	1.69108
0.03	-0.0224474	-0.0804059	0.0538766	-0.0676677	1.00982	-0.194601	0.375343	0.0702589	-0.00746042	0.0430632	-0.0861266	-0.0374233	-0.000500006	-0.13354	-0.0843452	-0.0128211	0.310928	0.459251	0.131248	-0.000525053	-0.104943	0.0954733	-0.0943516	-0.239464	-0.11331	-0.279947	0.721196	1.74597	0.217928	-0.39692	0.117159	1.23465	1.69473
0.04	-0.0216032	-0.0907317	0.054436	-0.0541684	1.01549	-0.193544	0.3718	0.0817095	-0.0114394	0.0591956	-0.098637	-0.0539556	-0.000499147	-0.130753	-0.0992549	-0.0187283	0.343595	0.451769	0.127045	-0.000524148	-0.103305	0.110851	-0.0942515	-0.239415	-0.115468	-0.280508	0.719159	1.74496	0.203159	-0.390997	0.116585	1.24221	1.6987
0.05	-0.0213663	-0.101372	0.0542391	-0.0407756	1.02049	-0.192386	0.368942	0.093734	-0.0144724	0.0758529	-0.107612	-0.0682174	-0.000498288	-0.125023	-0.114803	-0.0251684	0.37974	0.438403	0.120422	-0.000523242	-0.101023	0.126269	-0.0935785	-0.239265	-0.11779	-0.280547	0.716659	1.74395	0.187583	-0.384492	0.116135	1.24804	1.70295
0.06	-0.0217185	-0.112244	0.0533456	-0.027507	1.02487	-0.191132	0.366521	0.106234	-0.0165179	0.0926428	-0.113	-0.0802206	-0.000497429	-0.116186	-0.130875	-0.0318997	0.419519	0.418921	0.111187	-0.000522336	-0.0981648	0.141613	-0.0924101	-0.23897	-0.120248	-0.280067	0.713746	1.74297	0.171246	-0.377432	0.115739	1.25218	1.70743
0.07	-0.0226355	-0.123225	0.0518721	-0.0143841	1.02869	-0.189796	0.364243	0.11905	-0.0176827	0.109083	-0.114807	-0.0898835	-0.00049657	-0.104054	-0.147297	-0.0385633	0.463066	0.393129	0.0991334	-0.000521431	-0.09481	0.156727	-0.0908822	-0.238481	-0.12281	-0.279082	0.710504	1.74209	0.154211	-0.369861	0.115297	1.25466	1.71206
0.08	-0.0240878	-0.134161	0.0500001	-0.00143104	1.03202	-0.1884	0.361793	0.131959	-0.0182558	0.124638	-0.113148	-0.0970277	-0.000495711	-0.0884543	-0.16384	-0.0447034	0.510432	0.36097	0.0840922	-0.000520525	-0.0910459	0.171427	-0.0891913	-0.237749	-0.125433	-0.277616	0.707047	1.74137	0.136564	-0.361839	0.114697	1.25556	1.71676
0.09	-0.0260386	-0.14488	0.0479669	0.0113286	1.03491	-0.186971	0.358873	0.144703	-0.0186875	0.138776	-0.108275	-0.101417	-0.000494852	-0.0692632	-0.180236	-0.0498159	0.561542	0.322615	0.065974	-0.000519619	-0.0869598	0.18552	-0.0875794	-0.23673	-0.12807	-0.275712	0.703516	1.74089	0.118411	-0.353438	0.113829	1.25496	1.72143
0.1	-0.0284337	-0.155204	0.046038	0.0238741	1.0374	-0.185539	0.355226	0.157007	-0.0195208	0.151018	-0.10057	-0.102817	-0.000493993	-0.0464569	-0.196197	-0.053421	0.616143	0.278555	0.0448047	-0.000518714	-0.0826375	0.198819	-0.0863008	-0.235399	-0.130676	-0.273421	0.700067	1.74072	0.0998809	-0.344737	0.112614	1.25296	1.72597
0.11	-0.0311919	-0.164976	0.0444658	0.0361901	1.03955	-0.184136	0.350662	0.168615	-0.0212907	0.161004	-0.0905203	-0.101068	-0.000493134	-0.0201516	-0.211432	-0.0551449	0.673775	0.229664	0.0207438	-0.000517808	-0.0781673	0.211153	-0.0855774	-0.233747	-0.133214	-0.270802	0.696862	1.74091	0.0811236	-0.33582	0.111023	1.24963	1.73026
0.12	-0.0342047	-0.174064	0.0434442	0.0482682	1.0414	-0.182782	0.345059	0.179312	-0.0244158	0.168526	-0.0786584	-0.0961443	-0.000492275	0.00936516	-0.225667	-0.054795	0.733767	0.177238	-0.00591067	-0.000516903	-0.0736505	0.222377	-0.0855525	-0.231788	-0.135655	-0.267913	0.694049	1.74147	0.0623089	-0.326773	0.109091	1.24504	1.73417
0.13	-0.0373541	-0.18237	0.0430725	0.0601074	1.04298	-0.181491	0.338363	0.18895	-0.029107	0.173548	-0.0655192	-0.088195	-0.000491417	0.041625	-0.238671	-0.0524099	0.79526	0.122989	-0.0347258	-0.000515998	-0.0692122	0.232368	-0.0862535	-0.229553	-0.137982	-0.264801	0.691752	1.74233	0.0436194	-0.317687	0.106927	1.23924	1.73754
0.14	-0.0405245	-0.189815	0.0433333	0.0717137	1.04434	-0.180266	0.330578	0.197456	-0.0353138	0.176199	-0.051599	-0.0775561	-0.000490558	0.0760022	-0.250266	-0.0482696	0.857253	0.0689916	-0.065141	-0.000515093	-0.0650006	0.241034	-0.0875754	-0.227088	-0.140193	-0.261494	0.690064	1.74336	0.0252397	-0.308654	0.104696	1.23223	1.74019
0.15	-0.0436085	-0.196341	0.0440888	0.0830997	1.04552	-0.179097	0.321758	0.204832	-0.0427214	0.176739	-0.037332	-0.0647287	-0.0004897	0.111767	-0.260338	-0.042862	0.918671	0.0175646	-0.0964762	-0.000514187	-0.0611733	0.248305	-0.0892911	-0.224446	-0.142298	-0.257995	0.689042	1.74435	0.00734262	-0.29977	0.102599	1.22402	1.74196
0.16	-0.0465177	-0.201903	0.0450983	0.0942825	1.04655	-0.177966	0.312001	0.211136	-0.0507991	0.175521	-0.0230784	-0.0503284	-0.000488841	0.148159	-0.268841	-0.0368095	0.978436	-0.0289132	-0.12794	-0.000513282	-0.057877	0.254134	-0.0910861	-0.221682	-0.144312	-0.254286	0.688705	1.74506	-0.00992424	-0.291131	0.100839	1.21456	1.74273
0.17	-0.0491935	-0.206475	0.046057	0.105283	1.04747	-0.17685	0.301434	0.216459	-0.058891	0.172939	-0.00911741	-0.0350138	-0.000487983	0.184457	-0.275782	-0.0307737	1.03554	-0.0682351	-0.158643	-0.000512378	-0.0552275	0.258492	-0.0926095	-0.218851	-0.146252	-0.250337	0.689045	1.74521	-0.0264487	-0.282832	0.0995953	1.20382	1.74243
0.18	-0.0516159	-0.210045	0.0466474	0.116122	1.0483	-0.175724	0.290207	0.220906	-0.0663281	0.169392	0.00435687	-0.0194065	-0.000487125	0.220047	-0.28121	-0.0253572	1.08907	-0.0986197	-0.187624	-0.000511473	-0.0532947	0.261367	-0.0935304	-0.216001	-0.14813	-0.24613	0.690026	1.74457	-0.0421601	-0.27496	0.0989989	1.19175	1.74107
0.19	-0.0538132	-0.212608	0.0465933	0.126822	1.04908	-0.174568	0.278471	0.224572	-0.0725372	0.165252	0.0172392	-0.00401927	-0.000486267	0.254452	-0.285203	-0.0210253	1.13829	-0.118939	-0.2139	-0.000510568	-0.052101	0.262771	-0.0935874	-0.213175	-0.149941	-0.241674	0.691598	1.74297	-0.0570296	-0.267589	0.0991148	1.17831	1.73872
0.2	-0.0558486	-0.214163	0.0456964	0.137403	1.04982	-0.173364	0.266369	0.227537	-0.0771235	0.160843	0.029512	0.0107929	-0.000485409	0.287346	-0.287853	-0.018061	1.18258	-0.12887	-0.236528	-0.000509663	-0.0516264	0.262746	-0.0926249	-0.210407	-0.151663	-0.237029	0.693697	1.74036	-0.0710653	-0.260775	0.0999392	1.16349	1.73554
0.21	-0.0577618	-0.214739	0.0438475	0.147875	1.05053	-0.172101	0.254024	0.229848	-0.0799088	0.156426	0.0412355	0.0248465	-0.000484551	0.318545	-0.289256	-0.0165634	1.22152	-0.128925	-0.254699	-0.000508759	-0.0518096	0.26135	-0.0906069	-0.20772	-0.153252	-0.232313	0.69625	1.73681	-0.0843055	-0.254553	0.101403	1.1473	1.7317
0.22	-0.0595706	-0.214394	0.0410368	0.158257	1.05121	-0.170781	0.241528	0.231528	-0.0809278	0.152195	0.0525307	0.038114	-0.000483693	0.347969	-0.289506	-0.0164758	1.25477	-0.120357	-0.267823	-0.000507854	-0.0525728	0.25866	-0.0876069	-0.205128	-0.15465	-0.227695	0.699179	1.7325	-0.0968108	-0.248931	0.103384	1.12978	1.72736
0.23	-0.0612726	-0.213206	0.037343	0.168563	1.05186	-0.169411	0.228938	0.232584	-0.0803891	0.148285	0.0635554	0.0506856	-0.000482836	0.37561	-0.2887	-0.0176341	1.28216	-0.104948	-0.275613	-0.000506949	-0.0538411	0.25477	-0.0837853	-0.202633	-0.155791	-0.223374	0.702396	1.72772	-0.108656	-0.243895	0.105718	1.11101	1.72267
0.24	-0.0628476	-0.211263	0.0329089	0.178804	1.05247	-0.168004	0.216278	0.233018	-0.0786147	0.144782	0.0744779	0.0627166	-0.000481978	0.401495	-0.286936	-0.0198199	1.30359	-0.0847198	-0.278116	-0.000506045	-0.0555529	0.249791	-0.0793592	-0.200222	-0.156613	-0.219545	0.705811	1.72277	-0.119924	-0.239407	0.108215	1.09111	1.71769
0.25	-0.0642654	-0.208658	0.0279118	0.188992	1.05304	-0.166577	0.203558	0.232832	-0.0759743	0.141734	0.0854513	0.0743732	-0.00048112	0.425671	-0.284319	-0.0228054	1.31909	-0.0616454	-0.275709	-0.00050514	-0.0576616	0.243844	-0.0745709	-0.197875	-0.157076	-0.216365	0.709335	1.71795	-0.130699	-0.235407	0.110673	1.07022	1.71244
0.26	-0.0654978	-0.20549	0.0225375	0.199133	1.05355	-0.165147	0.190785	0.232041	-0.0728283	0.139164	0.0965946	0.0857871	-0.000480263	0.448195	-0.280954	-0.026382	1.32874	-0.0374031	-0.269037	-0.000504236	-0.06013	0.237058	-0.0696617	-0.195564	-0.157168	-0.213915	0.712883	1.71351	-0.141063	-0.231823	0.112887	1.04848	1.70689
0.27	-0.066529	-0.201858	0.0169598	0.209234	1.05401	-0.16373	0.177981	0.230675	-0.0694872	0.137086	0.107981	0.0970235	-0.000479406	0.469136	-0.276954	-0.030371	1.33269	-0.0132355	-0.258929	-0.000503332	-0.0629212	0.22957	-0.064854	-0.193261	-0.156918	-0.212187	0.716385	1.70959	-0.151091	-0.228571	0.114655	1.02605	1.70099
0.28	-0.067363	-0.197863	0.0113292	0.219302	1.05438	-0.162338	0.165194	0.228783	-0.0661882	0.135505	0.119638	0.108065	-0.000478548	0.488577	-0.272425	-0.0346186	1.33116	0.0100811	-0.246297	-0.000502427	-0.0659898	0.221516	-0.0603397	-0.190941	-0.15639	-0.211082	0.719793	1.70625	-0.160849	-0.225565	0.115785	1.00311	1.69473
0.29	-0.0680227	-0.19361	0.00576846	0.229339	1.05466	-0.16099	0.152491	0.226439	-0.0630845	0.134428	0.13155	0.118805	-0.000477691	0.506615	-0.267473	-0.0389838	1.32439	0.0321701	-0.232055	-0.000501523	-0.0692784	0.213037	-0.0562757	-0.18859	-0.155681	-0.210422	0.723082	1.70346	-0.170391	-0.22272	0.116091	0.979809	1.68817
0.3	-0.0685471	-0.18921	0.000376057	0.239348	1.05482	-0.159695	0.139956	0.223735	-0.0602448	0.133853	0.143667	0.129058	-0.000476834	0.52335	-0.262199	-0.0433242	1.31262	0.052928	-0.217052	-0.000500619	-0.0727206	0.204277	-0.0527828	-0.186208	-0.154911	-0.209983	0.726255	1.70115	-0.179759	-0.219963	0.115405	0.956305	1.68147
0.31	-0.0689804	-0.184775	-0.00476905	0.249334	1.05484	-0.158461	0.127668	0.220785	-0.0576577	0.133773	0.155924	0.138568	-0.000475977	0.53888	-0.256693	-0.0474859	1.29612	0.0723838	-0.202035	-0.000499715	-0.0762494	0.195375	-0.0499474	-0.18381	-0.154204	-0.209529	0.729339	1.69923	-0.188985	-0.217231	0.113573	0.932768	1.67487
0.32	-0.0693622	-0.180419	-0.00960062	0.2593	1.05472	-0.157294	0.11569	0.217716	-0.0552432	0.134168	0.168249	0.147039	-0.000475121	0.553286	-0.25104	-0.0513025	1.27515	0.090581	-0.187628	-0.000498811	-0.0798099	0.18647	-0.0478245	-0.181427	-0.153678	-0.208847	0.732377	1.6976	-0.198091	-0.21448	0.110467	0.909375	1.6687
0.33	-0.069717	-0.176248	-0.0140588	0.269254	1.05444	-0.156198	0.104049	0.214661	-0.0528715	0.135006	0.18058	0.154169	-0.000474264	0.566617	-0.245314	-0.0546031	1.24995	0.1075	-0.174327	-0.000497908	-0.0833709	0.177687	-0.046441	-0.179098	-0.153426	-0.207773	0.735426	1.69622	-0.207093	-0.211688	0.10599	0.886319	1.66327
0.34	-0.0700459	-0.172353	-0.0180862	0.279201	1.054	-0.155177	0.0927304	0.211744	-0.0503899	0.136244	0.192874	0.159697	-0.000473408	0.578883	-0.239582	-0.0572327	1.22075	0.123023	-0.162492	-0.000497004	-0.0869335	0.169133	-0.045801	-0.17687	-0.153509	-0.20621	0.738542	1.69509	-0.216003	-0.208851	0.100086	0.863801	1.65889
0.35	-0.0703224	-0.168803	-0.0216255	0.289151	1.0534	-0.154233	0.0816769	0.209067	-0.0476552	0.137833	0.205111	0.163449	-0.000472552	0.590045	-0.233898	-0.059079	1.18776	0.136926	-0.152349	-0.000496101	-0.0905326	0.16088	-0.0458922	-0.174791	-0.153947	-0.204127	0.741778	1.69426	-0.224828	-0.205991	0.0927427	0.842027	1.65574
